<svg xmlns="http://www.w3.org/2000/svg">

  <symbol id="house" aria-hidden="true" focusable="false" width="39" height="37" fill="none" xmlns="http://www.w3.org/2000/svg" viewBox="0 0 39 37"
    role="img" aria-label="Иконка дома"><path d="M15.4 33.22h8.35V21.06H15.4v12.16Zm6.84-1.48h-5.32v-9.2h5.27v9.2h.05Z" fill="currentColor"/><path d="m37.9 20.04 1.1-1.07-5.17-5.03V.2h-7.2v6.72L19.47 0 0 19.03l1.1 1.06 4.07-3.96v19.23H3.13v1.47H36.5v-1.47h-2.66V16.08l4.07 3.96ZM28.14 1.73h4.13v10.73l-4.13-4.02V1.73Zm4.18 33.57H6.73V14.6L19.47 2.14l12.8 12.46v20.7h.05Z" fill="currentColor"/><path d="M15.56 13.84a4.01 4.01 0 0 0 4.02 3.96 4.03 4.03 0 0 0 4.07-3.96 3.98 3.98 0 0 0-4.07-3.92 3.94 3.94 0 0 0-4.02 3.92Zm4.02-2.55a2.59 2.59 0 0 1 2.6 2.55 2.58 2.58 0 0 1-2.6 2.54 2.59 2.59 0 0 1-2.61-2.54c0-1.38 1.2-2.55 2.6-2.55ZM10.39 21.06H8.82v1.99h1.57v-1.99ZM13.47 21.06H11.9v1.99h1.57v-1.99ZM10.39 24.11H8.82v1.99h1.57V24.1ZM13.47 24.11H11.9v1.99h1.57V24.1ZM27.04 21.06h-1.56v1.99h1.56v-1.99ZM30.18 21.06H28.6v1.99h1.57v-1.99ZM27.04 24.11h-1.56v1.99h1.56V24.1ZM30.18 24.11H28.6v1.99h1.57V24.1Z" fill="currentColor"/>
  </symbol>
  <symbol id="burger" aria-hidden="true" focusable="false" width="76" height="75" fill="none" xmlns="http://www.w3.org/2000/svg" viewBox="0 0 76 75"
    role="img" aria-label="Иконка бургера"><path d="M37.743 23.3H2.257C.997 23.3 0 24.314 0 25.478v1.773c0 1.165.997 2.128 2.257 2.128h.525v.506c0 2.786 2.362 5.015 5.197 5.015h24.042c2.887 0 5.197-2.28 5.197-5.015v-.506h.525c1.207 0 2.257-.963 2.257-2.178v-1.773c0-1.114-.997-2.128-2.257-2.128Zm-2.047 6.585c0 1.925-1.628 3.495-3.622 3.495H7.927c-1.995 0-3.623-1.57-3.623-3.495v-.506h31.392v.506Zm2.73-2.684c0 .354-.316.658-.683.658H2.257c-.367 0-.682-.304-.682-.658v-1.773c0-.304.315-.608.682-.608h35.538c.368 0 .683.304.683.659V27.2h-.053ZM8.504 19.197l2.835 2.026 2.887-2.026 2.887 2.026L20 19.197l2.835 2.026 2.887-2.026 2.887 2.026 2.887-2.026 2.887 2.026 3.307-2.38-.892-1.216-2.415 1.672-2.887-2.026-2.887 2.026-2.887-2.026-2.887 2.026L20 17.273l-2.887 2.026-2.887-2.026-2.887 2.026-2.835-2.026-2.887 2.026-2.415-1.672-.945 1.216 3.36 2.38 2.887-2.026ZM37.218 15.753c0-.304.052-1.317 0-1.52C36.85 6.332 29.29 0 20 0S3.097 6.332 2.73 14.233v1.52h34.488ZM20 1.52c8.399 0 15.328 5.673 15.643 12.713H4.304C4.672 7.193 11.601 1.52 20 1.52Z" fill="currentColor"/><path d="M20 8.611c.58 0 1.05-.453 1.05-1.013 0-.56-.47-1.013-1.05-1.013-.58 0-1.05.454-1.05 1.013 0 .56.47 1.013 1.05 1.013ZM15.8 6.129c.58 0 1.05-.454 1.05-1.013 0-.56-.47-1.013-1.05-1.013-.58 0-1.05.453-1.05 1.013 0 .56.47 1.013 1.05 1.013ZM24.2 6.129c.58 0 1.05-.454 1.05-1.013 0-.56-.47-1.013-1.05-1.013-.58 0-1.05.453-1.05 1.013 0 .56.47 1.013 1.05 1.013Z" fill="currentColor"/></symbol>
    <symbol id="gift" aria-hidden="true" focusable="false" width="32" height="38" fill="none" xmlns="http://www.w3.org/2000/svg" viewBox="0 0 32 38"
    role="img" aria-label="Иконка сувенира"><path d="M30.58 11.2h-12.4c6.91-3.44 7.47-5.62 7.22-6.83-.56-1.98-2.85-3.5-4.98-2.69-2.8 1.07-3.56 5.22-4.32 8.2-.96-3.03-1.88-6.88-4.06-8.85A3.7 3.7 0 0 0 9.14 0c-2.03.2-4.92 2.69-3.7 5.47 1.11 2.69 4.82 4.4 7.3 5.78H1.43c-.81 0-1.42.65-1.42 1.41v5.68c0 .8.66 1.42 1.42 1.42h.15V38h28.96V19.77h.05c.81 0 1.42-.66 1.42-1.42v-5.68c0-.8-.66-1.46-1.42-1.46Zm-9.35-8.25c1.07-.15 2.5.66 2.64 1.62.2 1.37-1.67 2.63-2.54 3.2-1.27.85-2.49 1.3-3.65 2.02.4-1.88 1.27-6.54 3.55-6.84ZM9.75 7.91c-1.12-.76-3.25-2.23-3.2-3.9C6.6 2.2 9.45.72 10.97 2.1c1.93 1.67 2.85 5.57 3.56 8.3-1.63-.8-3.15-1.41-4.78-2.48Zm3 28.57h-9.7V19.77h9.7v16.71Zm0-18.23H1.52v-5.52h11.23v5.52Zm5.08 18.23h-3.6V12.73h3.6v23.75Zm11.17 0h-9.65V19.77h9.7v16.71H29Zm1.48-18.23H19.35v-5.52h11.13v5.52Z" fill="currentColor"/></symbol>
    <symbol id="twitter" aria-hidden="true" focusable="false" width="18" height="15" fill="none" xmlns="http://www.w3.org/2000/svg" viewBox="0 0 18 15" role="img" aria-label="Мы в Twitter"><path d="M11.3.17c1.7-.5 3.1.2 3.7 1.1.7-.2 1.4-.5 2.1-.7 0 .8-.5 1.5-.9 1.7.7.2 1.3-.5 1.3-.5-.2 1-1 1.7-1.6 2-.2 6.6-3.3 11-10.4 10.8H5c-.4 0-4.3-.4-5-1.8 2.3.2 4-.4 4.8-1.1-1-.3-2.8-.5-3.1-2.9.4.1.6.2 1.3.1-1.2-.8-2.6-1.5-2.5-3.7.3.3 1.1.5 1.4.5-.7-.2-2-3.3-.9-4.8 1.9 1.8 3.8 3.5 7.4 3.7.1-2.3 1.1-3.8 2.9-4.4Z" fill="#ffffff"/></symbol>
    <symbol id="youtube" aria-hidden="true" focusable="false" width="20" height="14" fill="none" xmlns="http://www.w3.org/2000/svg" viewBox="0 0 20 14" role="img" aria-label="Мы в YouTube"><path d="M17.1 0H2.8C1.3 0 0 1.3 0 2.8v8.3C0 12.7 1.3 14 2.8 14h14.3c1.6 0 2.8-1.3 2.8-2.8V2.8C20 1.3 18.7 0 17.1 0ZM7 10.4V3.6L13.8 7 7 10.4Z" fill="#ffffff"/></symbol>
    <symbol id="facebook" aria-hidden="true" focusable="false" width="9" height="19" fill="none" xmlns="http://www.w3.org/2000/svg" viewBox="0 0 9 19" role="img" aria-label="Мы в Facebook"><path d="M6.3 3.4h2.4V0H5.8C2.7.2 1.5 2.4 1.9 6.1H0v3.5h2v9.3h3.8V9.6h2.9V6.1H5.8c0-1 0-2.4.5-2.7Z" fill="#ffffff"/></symbol>
    <symbol id="academy" aria-hidden="true" focusable="false" width="27" height="34" viewBox="0 0 27 34" fill="none" xmlns="http://www.w3.org/2000/svg" role="img" aria-label="HtmlAcademy"><path d="M13.6 0h-.1L0 1.4v24.7l13.5 8 13.4-8V1.4L13.6 0ZM25 12.1 13.5 5.3v-.1h-.1l-.1-.1v.1L1.9 12.1v-9l11.5-1.2L25 3.1v9ZM13.4 6.8l11.5 6.7-4.5 2.6-7.1-4.2v1.4l5.9 3.5-.9.5-5-3v1.4l3.8 2.3-.8.5-3-1.8v1.4l1.9 1.1-1.8 1.1L2 13.6l11.4-6.8ZM1.9 15.1l11.4 6.8v1l-7.9-4.7v1.4l8 4.8v1.1l-8-4.7v1.4l8 4.8 8.1-4.9v-5.2l3.4-2v10l-11.5 6.9L1.9 25v-9.9Z" fill="currentColor"/>
    </symbol>
    <symbol id="like" width="23" height="21" viewBox="0 0 23 21" xmlns="http://www.w3.org/2000/svg" role="img" aria-label="Лайк"><path d="m12.96 3.78-.62 3.05-.63 2.62h9.09v2.2l-3.03 7.25h-9.4V8.4l4.6-4.62ZM2.1 10.5v8.4-8.4ZM13.8 0 6.9 6.93c-.42.32-.63.84-.63 1.47v10.5c0 1.16.94 2.1 2.1 2.1h9.4c.84 0 1.57-.52 1.88-1.26l3.14-7.45c.1-.21.1-.53.1-.74v-2.1H23a2.1 2.1 0 0 0-2.1-2.1h-6.58l1.05-4.83v-.31c0-.43-.21-.84-.42-1.16L13.8 0ZM4.18 8.4H0V21h4.18V8.4Z" fill="currentColor"/></symbol>
    <symbol id="phone" width="18" height="18" viewBox="0 0 18 18" fill="none" xmlns="http://www.w3.org/2000/svg" role="img" aria-label="Иконка телефонной трубки"><path d="M3.6 7.8c1.4 2.8 3.8 5.1 6.6 6.6l2.2-2.2c.3-.3.7-.4 1-.2 1.1.4 2.3.6 3.6.6.6 0 1 .4 1 1V17c0 .6-.4 1-1 1C7.6 18 0 10.4 0 1c0-.6.4-1 1-1h3.5c.6 0 1 .4 1 1 0 1.2.2 2.4.6 3.6.1.3 0 .7-.2 1L3.6 7.8Z" fill="#010101"/></symbol>
    <symbol id="email" width="16" height="12" viewBox="0 0 16 12" fill="none" xmlns="http://www.w3.org/2000/svg" role="img" aria-label="Иконка почтового конверта"><path d="M8 8c-.3 0-.5-.1-1-.3L0 4v7c0 .5.5 1 1 1h14c.5 0 1-.5 1-1V4L9 7.7c-.5.2-.7.3-1 .3Zm7-8H1C.5 0 0 .5 0 1v.8L8 6l8-4.2V1c0-.5-.5-1-1-1Z" fill="#000"/></symbol>
</svg>
